<svg width="2911" height="4841" viewBox="0 0 2911 4841" fill="none" xmlns="http://www.w3.org/2000/svg">
<path d="M1284.51 3875H253.263V965.909H1293.04C1585.65 965.909 1837.54 1024.15 2048.72 1140.62C2259.89 1256.16 2422.3 1422.35 2535.93 1639.2C2650.52 1856.06 2707.81 2115.53 2707.81 2417.61C2707.81 2720.64 2650.52 2981.06 2535.93 3198.86C2422.3 3416.67 2258.94 3583.81 2045.88 3700.28C1833.76 3816.76 1579.97 3875 1284.51 3875ZM868.32 3348.01H1258.94C1440.76 3348.01 1593.7 3315.81 1717.75 3251.42C1842.75 3186.08 1936.5 3085.23 1999 2948.86C2062.45 2811.55 2094.17 2634.47 2094.17 2417.61C2094.17 2202.65 2062.45 2026.99 1999 1890.62C1936.5 1754.26 1843.22 1653.88 1719.17 1589.49C1595.12 1525.09 1442.18 1492.9 1260.37 1492.9H868.32V3348.01Z" fill="white"/>
<circle cx="560" cy="423" r="300" fill="url(#paint0_linear_2022_345)"/>
<defs>
<linearGradient id="paint0_linear_2022_345" x1="-459.5" y1="-156" x2="1483" y2="1139" gradientUnits="userSpaceOnUse">
<stop stop-color="#FBBF24"/>
<stop offset="1" stop-color="#D97706"/>
</linearGradient>
</defs>
</svg>
